<mxfile host="app.diagrams.net" agent="Mozilla/5.0 (Windows NT 10.0; Win64; x64; rv:130.0) Gecko/20100101 Firefox/130.0" version="24.7.10">
  <diagram name="Page-1" id="MHz25P8l1DLz0FaoC143">
    <mxGraphModel dx="3186" dy="350" grid="1" gridSize="10" guides="1" tooltips="1" connect="1" arrows="1" fold="1" page="1" pageScale="1" pageWidth="850" pageHeight="1100" background="none" math="0" shadow="0">
      <root>
        <mxCell id="0" />
        <mxCell id="1" parent="0" />
        <mxCell id="1-W61MvCv8Y89S9msYaM-39" value="info about currently selected/highlighted item" style="rounded=0;whiteSpace=wrap;html=1;" parent="1" vertex="1">
          <mxGeometry x="-2440" y="1710" width="150" height="120" as="geometry" />
        </mxCell>
        <mxCell id="1-W61MvCv8Y89S9msYaM-41" value="Recent Items" style="rounded=0;whiteSpace=wrap;html=1;" parent="1" vertex="1">
          <mxGeometry x="-2160" y="1210" width="120" height="60" as="geometry" />
        </mxCell>
        <mxCell id="1-W61MvCv8Y89S9msYaM-42" value="Currently Selected Item" style="rounded=0;whiteSpace=wrap;html=1;" parent="1" vertex="1">
          <mxGeometry x="-1950" y="1310" width="120" height="60" as="geometry" />
        </mxCell>
        <mxCell id="1-W61MvCv8Y89S9msYaM-78" value="&lt;div&gt;Clicking on Item&lt;/div&gt;&lt;div&gt;selects it&lt;br&gt;&lt;/div&gt;" style="rounded=0;whiteSpace=wrap;html=1;" parent="1" vertex="1">
          <mxGeometry x="-2340" y="1470" width="120" height="60" as="geometry" />
        </mxCell>
        <mxCell id="1-W61MvCv8Y89S9msYaM-79" value="Selecting an Item moves it to slot 1 and moves ell others back by one" style="rounded=0;whiteSpace=wrap;html=1;" parent="1" vertex="1">
          <mxGeometry x="-2520" y="1410" width="120" height="60" as="geometry" />
        </mxCell>
        <mxCell id="1-W61MvCv8Y89S9msYaM-87" value="Clicking on these opens the appropriate palette" style="rounded=0;whiteSpace=wrap;html=1;" parent="1" vertex="1">
          <mxGeometry x="-1080" y="1030" width="120" height="60" as="geometry" />
        </mxCell>
        <mxCell id="1-W61MvCv8Y89S9msYaM-88" value="Within a palette the user can select a new item" style="rounded=0;whiteSpace=wrap;html=1;" parent="1" vertex="1">
          <mxGeometry x="-947" y="1030" width="120" height="60" as="geometry" />
        </mxCell>
        <mxCell id="7OBTo_eKb8ReW-Sw8Fou-2" value="" style="group" vertex="1" connectable="0" parent="1">
          <mxGeometry x="-2170" y="1290" width="180" height="512" as="geometry" />
        </mxCell>
        <mxCell id="1-W61MvCv8Y89S9msYaM-1" value="" style="rounded=0;whiteSpace=wrap;html=1;container=0;" parent="7OBTo_eKb8ReW-Sw8Fou-2" vertex="1">
          <mxGeometry width="180" height="512" as="geometry" />
        </mxCell>
        <mxCell id="1-W61MvCv8Y89S9msYaM-14" value="4" style="rounded=0;whiteSpace=wrap;html=1;container=0;" parent="7OBTo_eKb8ReW-Sw8Fou-2" vertex="1">
          <mxGeometry x="13" y="100" width="64" height="64" as="geometry" />
        </mxCell>
        <mxCell id="1-W61MvCv8Y89S9msYaM-15" value="3" style="rounded=0;whiteSpace=wrap;html=1;container=0;" parent="7OBTo_eKb8ReW-Sw8Fou-2" vertex="1">
          <mxGeometry x="103" y="100" width="64" height="64" as="geometry" />
        </mxCell>
        <mxCell id="1-W61MvCv8Y89S9msYaM-16" value="6" style="rounded=0;whiteSpace=wrap;html=1;container=0;" parent="7OBTo_eKb8ReW-Sw8Fou-2" vertex="1">
          <mxGeometry x="13" y="180" width="64" height="64" as="geometry" />
        </mxCell>
        <mxCell id="1-W61MvCv8Y89S9msYaM-76" value="" style="rounded=0;whiteSpace=wrap;html=1;container=0;" parent="7OBTo_eKb8ReW-Sw8Fou-2" vertex="1">
          <mxGeometry x="97.5" y="14.5" width="75" height="75" as="geometry" />
        </mxCell>
        <mxCell id="1-W61MvCv8Y89S9msYaM-17" value="5" style="rounded=0;whiteSpace=wrap;html=1;container=0;" parent="7OBTo_eKb8ReW-Sw8Fou-2" vertex="1">
          <mxGeometry x="103" y="180" width="64" height="64" as="geometry" />
        </mxCell>
        <mxCell id="1-W61MvCv8Y89S9msYaM-18" value="8" style="rounded=0;whiteSpace=wrap;html=1;container=0;" parent="7OBTo_eKb8ReW-Sw8Fou-2" vertex="1">
          <mxGeometry x="13" y="260" width="64" height="64" as="geometry" />
        </mxCell>
        <mxCell id="1-W61MvCv8Y89S9msYaM-19" value="7" style="rounded=0;whiteSpace=wrap;html=1;container=0;" parent="7OBTo_eKb8ReW-Sw8Fou-2" vertex="1">
          <mxGeometry x="103" y="260" width="64" height="64" as="geometry" />
        </mxCell>
        <mxCell id="1-W61MvCv8Y89S9msYaM-21" value="" style="line;strokeWidth=1;fillColor=none;align=left;verticalAlign=middle;spacingTop=-1;spacingLeft=3;spacingRight=3;rotatable=0;labelPosition=right;points=[];portConstraint=eastwest;strokeColor=default;container=0;" parent="7OBTo_eKb8ReW-Sw8Fou-2" vertex="1">
          <mxGeometry x="10" y="330" width="160" height="8" as="geometry" />
        </mxCell>
        <mxCell id="1-W61MvCv8Y89S9msYaM-22" value="Item Description" style="rounded=0;whiteSpace=wrap;html=1;container=0;" parent="7OBTo_eKb8ReW-Sw8Fou-2" vertex="1">
          <mxGeometry x="9" y="350" width="162" height="151" as="geometry" />
        </mxCell>
        <mxCell id="1-W61MvCv8Y89S9msYaM-3" value="Item1" style="rounded=0;whiteSpace=wrap;html=1;container=0;" parent="7OBTo_eKb8ReW-Sw8Fou-2" vertex="1">
          <mxGeometry x="13" y="20" width="64" height="64" as="geometry" />
        </mxCell>
        <mxCell id="1-W61MvCv8Y89S9msYaM-77" value="Item2" style="rounded=0;whiteSpace=wrap;html=1;container=0;" parent="7OBTo_eKb8ReW-Sw8Fou-2" vertex="1">
          <mxGeometry x="13" y="20" width="64" height="64" as="geometry" />
        </mxCell>
        <mxCell id="1-W61MvCv8Y89S9msYaM-9" value="Item1" style="rounded=0;whiteSpace=wrap;html=1;container=0;" parent="7OBTo_eKb8ReW-Sw8Fou-2" vertex="1">
          <mxGeometry x="103" y="20" width="64" height="64" as="geometry" />
        </mxCell>
        <mxCell id="7OBTo_eKb8ReW-Sw8Fou-1" style="edgeStyle=orthogonalEdgeStyle;rounded=0;orthogonalLoop=1;jettySize=auto;html=1;entryX=1.017;entryY=0.606;entryDx=0;entryDy=0;entryPerimeter=0;" edge="1" parent="1" source="1-W61MvCv8Y89S9msYaM-42" target="1-W61MvCv8Y89S9msYaM-9">
          <mxGeometry relative="1" as="geometry" />
        </mxCell>
        <mxCell id="1-W61MvCv8Y89S9msYaM-40" style="edgeStyle=orthogonalEdgeStyle;rounded=0;orthogonalLoop=1;jettySize=auto;html=1;entryX=0;entryY=0.5;entryDx=0;entryDy=0;" parent="1" source="1-W61MvCv8Y89S9msYaM-39" target="1-W61MvCv8Y89S9msYaM-22" edge="1">
          <mxGeometry relative="1" as="geometry" />
        </mxCell>
        <mxCell id="7OBTo_eKb8ReW-Sw8Fou-61" value="Whether the level is compatible with the various game modes" style="rounded=0;whiteSpace=wrap;html=1;" vertex="1" parent="1">
          <mxGeometry x="220" y="1160" width="120" height="60" as="geometry" />
        </mxCell>
        <mxCell id="7OBTo_eKb8ReW-Sw8Fou-62" value="" style="group" vertex="1" connectable="0" parent="1">
          <mxGeometry y="1138" width="180" height="512" as="geometry" />
        </mxCell>
        <mxCell id="7OBTo_eKb8ReW-Sw8Fou-17" value="Level Settings" style="rounded=0;whiteSpace=wrap;html=1;" vertex="1" parent="7OBTo_eKb8ReW-Sw8Fou-62">
          <mxGeometry width="180" height="512" as="geometry" />
        </mxCell>
        <mxCell id="7OBTo_eKb8ReW-Sw8Fou-24" value="Exit" style="rounded=0;whiteSpace=wrap;html=1;" vertex="1" parent="7OBTo_eKb8ReW-Sw8Fou-62">
          <mxGeometry x="10" y="472" width="160" height="30" as="geometry" />
        </mxCell>
        <mxCell id="7OBTo_eKb8ReW-Sw8Fou-25" value="Save" style="rounded=0;whiteSpace=wrap;html=1;" vertex="1" parent="7OBTo_eKb8ReW-Sw8Fou-62">
          <mxGeometry x="10" y="432" width="74" height="30" as="geometry" />
        </mxCell>
        <mxCell id="7OBTo_eKb8ReW-Sw8Fou-26" value="Load" style="rounded=0;whiteSpace=wrap;html=1;" vertex="1" parent="7OBTo_eKb8ReW-Sw8Fou-62">
          <mxGeometry x="96" y="432" width="74" height="30" as="geometry" />
        </mxCell>
        <mxCell id="7OBTo_eKb8ReW-Sw8Fou-28" value="Test" style="rounded=0;whiteSpace=wrap;html=1;" vertex="1" parent="7OBTo_eKb8ReW-Sw8Fou-62">
          <mxGeometry x="10" y="392" width="160" height="30" as="geometry" />
        </mxCell>
        <mxCell id="7OBTo_eKb8ReW-Sw8Fou-29" value="&lt;div align=&quot;left&quot;&gt;Level Descripion&lt;/div&gt;" style="rounded=0;whiteSpace=wrap;html=1;align=left;verticalAlign=top;" vertex="1" parent="7OBTo_eKb8ReW-Sw8Fou-62">
          <mxGeometry x="10" y="232" width="160" height="130" as="geometry" />
        </mxCell>
        <mxCell id="7OBTo_eKb8ReW-Sw8Fou-30" value="" style="line;strokeWidth=1;fillColor=none;align=left;verticalAlign=middle;spacingTop=-1;spacingLeft=3;spacingRight=3;rotatable=0;labelPosition=right;points=[];portConstraint=eastwest;strokeColor=inherit;" vertex="1" parent="7OBTo_eKb8ReW-Sw8Fou-62">
          <mxGeometry x="10" y="372" width="160" height="8" as="geometry" />
        </mxCell>
        <mxCell id="7OBTo_eKb8ReW-Sw8Fou-31" value="&lt;div&gt;&lt;font style=&quot;font-size: 19px;&quot;&gt;Level Name&lt;/font&gt;&lt;/div&gt;" style="rounded=0;whiteSpace=wrap;html=1;align=center;" vertex="1" parent="7OBTo_eKb8ReW-Sw8Fou-62">
          <mxGeometry x="10" y="182" width="160" height="40" as="geometry" />
        </mxCell>
        <mxCell id="7OBTo_eKb8ReW-Sw8Fou-33" value="Run tests" style="rounded=0;whiteSpace=wrap;html=1;" vertex="1" parent="7OBTo_eKb8ReW-Sw8Fou-62">
          <mxGeometry x="10" y="132" width="160" height="24" as="geometry" />
        </mxCell>
        <mxCell id="7OBTo_eKb8ReW-Sw8Fou-34" value="" style="line;strokeWidth=1;fillColor=none;align=left;verticalAlign=middle;spacingTop=-1;spacingLeft=3;spacingRight=3;rotatable=0;labelPosition=right;points=[];portConstraint=eastwest;strokeColor=inherit;" vertex="1" parent="7OBTo_eKb8ReW-Sw8Fou-62">
          <mxGeometry x="10" y="164" width="160" height="8" as="geometry" />
        </mxCell>
        <mxCell id="7OBTo_eKb8ReW-Sw8Fou-36" value="" style="rounded=0;whiteSpace=wrap;html=1;" vertex="1" parent="7OBTo_eKb8ReW-Sw8Fou-62">
          <mxGeometry x="10" y="12" width="160" height="110" as="geometry" />
        </mxCell>
        <mxCell id="7OBTo_eKb8ReW-Sw8Fou-37" value="" style="line;strokeWidth=1;rotatable=0;dashed=0;labelPosition=right;align=left;verticalAlign=middle;spacingTop=0;spacingLeft=6;points=[];portConstraint=eastwest;" vertex="1" parent="7OBTo_eKb8ReW-Sw8Fou-62">
          <mxGeometry x="10" y="32" width="160" height="10" as="geometry" />
        </mxCell>
        <mxCell id="7OBTo_eKb8ReW-Sw8Fou-38" value="" style="line;strokeWidth=1;rotatable=0;dashed=0;labelPosition=right;align=left;verticalAlign=middle;spacingTop=0;spacingLeft=6;points=[];portConstraint=eastwest;" vertex="1" parent="7OBTo_eKb8ReW-Sw8Fou-62">
          <mxGeometry x="10" y="72" width="160" height="10" as="geometry" />
        </mxCell>
        <mxCell id="7OBTo_eKb8ReW-Sw8Fou-39" value="" style="line;strokeWidth=1;rotatable=0;dashed=0;labelPosition=right;align=left;verticalAlign=middle;spacingTop=0;spacingLeft=6;points=[];portConstraint=eastwest;" vertex="1" parent="7OBTo_eKb8ReW-Sw8Fou-62">
          <mxGeometry x="10" y="52" width="160" height="10" as="geometry" />
        </mxCell>
        <mxCell id="7OBTo_eKb8ReW-Sw8Fou-41" value="" style="line;strokeWidth=1;rotatable=0;dashed=0;labelPosition=right;align=left;verticalAlign=middle;spacingTop=0;spacingLeft=6;points=[];portConstraint=eastwest;" vertex="1" parent="7OBTo_eKb8ReW-Sw8Fou-62">
          <mxGeometry x="10" y="92" width="160" height="10" as="geometry" />
        </mxCell>
        <mxCell id="7OBTo_eKb8ReW-Sw8Fou-43" value="" style="line;strokeWidth=1;rotatable=0;dashed=0;labelPosition=right;align=left;verticalAlign=middle;spacingTop=0;spacingLeft=6;points=[];portConstraint=eastwest;direction=south;" vertex="1" parent="7OBTo_eKb8ReW-Sw8Fou-62">
          <mxGeometry x="86" y="12" width="10" height="110" as="geometry" />
        </mxCell>
        <mxCell id="7OBTo_eKb8ReW-Sw8Fou-44" value="Game Mode1" style="text;html=1;align=left;verticalAlign=middle;whiteSpace=wrap;rounded=0;" vertex="1" parent="7OBTo_eKb8ReW-Sw8Fou-62">
          <mxGeometry x="10" y="9" width="80" height="30" as="geometry" />
        </mxCell>
        <mxCell id="7OBTo_eKb8ReW-Sw8Fou-45" value="Game Mode1" style="text;html=1;align=left;verticalAlign=middle;whiteSpace=wrap;rounded=0;" vertex="1" parent="7OBTo_eKb8ReW-Sw8Fou-62">
          <mxGeometry x="10" y="32" width="80" height="30" as="geometry" />
        </mxCell>
        <mxCell id="7OBTo_eKb8ReW-Sw8Fou-46" value="Game Mode1" style="text;html=1;align=left;verticalAlign=middle;whiteSpace=wrap;rounded=0;" vertex="1" parent="7OBTo_eKb8ReW-Sw8Fou-62">
          <mxGeometry x="10" y="52" width="80" height="30" as="geometry" />
        </mxCell>
        <mxCell id="7OBTo_eKb8ReW-Sw8Fou-47" value="Game Mode1" style="text;html=1;align=left;verticalAlign=middle;whiteSpace=wrap;rounded=0;" vertex="1" parent="7OBTo_eKb8ReW-Sw8Fou-62">
          <mxGeometry x="10" y="72" width="80" height="30" as="geometry" />
        </mxCell>
        <mxCell id="7OBTo_eKb8ReW-Sw8Fou-48" value="Game Mode1" style="text;html=1;align=left;verticalAlign=middle;whiteSpace=wrap;rounded=0;" vertex="1" parent="7OBTo_eKb8ReW-Sw8Fou-62">
          <mxGeometry x="10" y="92" width="80" height="30" as="geometry" />
        </mxCell>
        <mxCell id="7OBTo_eKb8ReW-Sw8Fou-49" value="Valid" style="text;html=1;align=left;verticalAlign=middle;whiteSpace=wrap;rounded=0;" vertex="1" parent="7OBTo_eKb8ReW-Sw8Fou-62">
          <mxGeometry x="90" y="9" width="37" height="30" as="geometry" />
        </mxCell>
        <mxCell id="7OBTo_eKb8ReW-Sw8Fou-50" value="Valid" style="text;html=1;align=left;verticalAlign=middle;whiteSpace=wrap;rounded=0;" vertex="1" parent="7OBTo_eKb8ReW-Sw8Fou-62">
          <mxGeometry x="90" y="32" width="37" height="30" as="geometry" />
        </mxCell>
        <mxCell id="7OBTo_eKb8ReW-Sw8Fou-51" value="Valid" style="text;html=1;align=left;verticalAlign=middle;whiteSpace=wrap;rounded=0;" vertex="1" parent="7OBTo_eKb8ReW-Sw8Fou-62">
          <mxGeometry x="90" y="52" width="37" height="30" as="geometry" />
        </mxCell>
        <mxCell id="7OBTo_eKb8ReW-Sw8Fou-52" value="Valid" style="text;html=1;align=left;verticalAlign=middle;whiteSpace=wrap;rounded=0;" vertex="1" parent="7OBTo_eKb8ReW-Sw8Fou-62">
          <mxGeometry x="90" y="72" width="37" height="30" as="geometry" />
        </mxCell>
        <mxCell id="7OBTo_eKb8ReW-Sw8Fou-53" value="Valid" style="text;html=1;align=left;verticalAlign=middle;whiteSpace=wrap;rounded=0;" vertex="1" parent="7OBTo_eKb8ReW-Sw8Fou-62">
          <mxGeometry x="90" y="92" width="37" height="30" as="geometry" />
        </mxCell>
        <mxCell id="7OBTo_eKb8ReW-Sw8Fou-56" value="" style="dashed=0;labelPosition=right;align=left;shape=mxgraph.gmdl.checkbox;strokeColor=none;fillColor=#B0B0B0;strokeWidth=2;aspect=fixed;sketch=0;html=1;" vertex="1" parent="7OBTo_eKb8ReW-Sw8Fou-62">
          <mxGeometry x="150" y="16" width="16" height="16" as="geometry" />
        </mxCell>
        <mxCell id="7OBTo_eKb8ReW-Sw8Fou-57" value="" style="dashed=0;labelPosition=right;align=left;shape=mxgraph.gmdl.checkbox;strokeColor=none;fillColor=#B0B0B0;strokeWidth=2;aspect=fixed;sketch=0;html=1;" vertex="1" parent="7OBTo_eKb8ReW-Sw8Fou-62">
          <mxGeometry x="150" y="79" width="16" height="16" as="geometry" />
        </mxCell>
        <mxCell id="7OBTo_eKb8ReW-Sw8Fou-58" value="" style="dashed=0;labelPosition=right;align=left;shape=mxgraph.gmdl.checkbox;strokeColor=none;fillColor=#B0B0B0;strokeWidth=2;aspect=fixed;sketch=0;html=1;" vertex="1" parent="7OBTo_eKb8ReW-Sw8Fou-62">
          <mxGeometry x="150" y="39" width="16" height="16" as="geometry" />
        </mxCell>
        <mxCell id="7OBTo_eKb8ReW-Sw8Fou-59" value="" style="dashed=0;labelPosition=right;align=left;shape=mxgraph.gmdl.checkbox;strokeColor=none;fillColor=#B0B0B0;strokeWidth=2;aspect=fixed;sketch=0;html=1;" vertex="1" parent="7OBTo_eKb8ReW-Sw8Fou-62">
          <mxGeometry x="150" y="59" width="16" height="16" as="geometry" />
        </mxCell>
        <mxCell id="7OBTo_eKb8ReW-Sw8Fou-60" value="" style="dashed=0;labelPosition=right;align=left;shape=mxgraph.gmdl.checkbox;strokeColor=none;fillColor=#B0B0B0;strokeWidth=2;aspect=fixed;sketch=0;html=1;" vertex="1" parent="7OBTo_eKb8ReW-Sw8Fou-62">
          <mxGeometry x="150" y="99" width="16" height="16" as="geometry" />
        </mxCell>
        <mxCell id="7OBTo_eKb8ReW-Sw8Fou-95" value="" style="group" vertex="1" connectable="0" parent="1">
          <mxGeometry x="-1422" y="1110" width="922" height="572" as="geometry" />
        </mxCell>
        <mxCell id="TJpbbNPDJ1j3fr_7OfPR-229" value="" style="group" parent="7OBTo_eKb8ReW-Sw8Fou-95" vertex="1" connectable="0">
          <mxGeometry width="922" height="572" as="geometry" />
        </mxCell>
        <mxCell id="TJpbbNPDJ1j3fr_7OfPR-117" value="" style="group" parent="TJpbbNPDJ1j3fr_7OfPR-229" vertex="1" connectable="0">
          <mxGeometry x="12" width="910" height="572" as="geometry" />
        </mxCell>
        <mxCell id="TJpbbNPDJ1j3fr_7OfPR-24" value="Window Title" style="strokeWidth=1;shadow=0;dashed=0;align=center;html=1;shape=mxgraph.mockup.containers.window;align=left;verticalAlign=top;spacingLeft=8;strokeColor2=#008cff;strokeColor3=#c4c4c4;fontColor=#666666;mainText=;fontSize=17;labelBackgroundColor=none;whiteSpace=wrap;" parent="TJpbbNPDJ1j3fr_7OfPR-117" vertex="1">
          <mxGeometry width="910" height="570" as="geometry" />
        </mxCell>
        <mxCell id="TJpbbNPDJ1j3fr_7OfPR-25" value="&lt;div style=&quot;font-size: 13px;&quot;&gt;&lt;font size=&quot;1&quot;&gt;&lt;b style=&quot;font-size: 34px;&quot;&gt;Edited Level&lt;/b&gt;&lt;/font&gt;&lt;/div&gt;" style="rounded=0;whiteSpace=wrap;html=1;aspect=fixed;" parent="TJpbbNPDJ1j3fr_7OfPR-117" vertex="1">
          <mxGeometry x="199" y="44" width="512" height="512" as="geometry" />
        </mxCell>
        <mxCell id="1-W61MvCv8Y89S9msYaM-2" value="Level Settings" style="rounded=0;whiteSpace=wrap;html=1;" parent="TJpbbNPDJ1j3fr_7OfPR-117" vertex="1">
          <mxGeometry x="720" y="44" width="180" height="512" as="geometry" />
        </mxCell>
        <mxCell id="1-W61MvCv8Y89S9msYaM-74" value="&lt;div style=&quot;font-size: 13px;&quot;&gt;&lt;font size=&quot;1&quot;&gt;&lt;b style=&quot;font-size: 34px;&quot;&gt;Edited Level&lt;/b&gt;&lt;/font&gt;&lt;/div&gt;" style="rounded=0;whiteSpace=wrap;html=1;aspect=fixed;" parent="TJpbbNPDJ1j3fr_7OfPR-117" vertex="1">
          <mxGeometry x="231" y="76" width="448" height="448" as="geometry" />
        </mxCell>
        <mxCell id="1-W61MvCv8Y89S9msYaM-85" value="" style="group" parent="TJpbbNPDJ1j3fr_7OfPR-117" vertex="1" connectable="0">
          <mxGeometry x="340" y="44" width="100" height="26" as="geometry" />
        </mxCell>
        <mxCell id="1-W61MvCv8Y89S9msYaM-80" value="&lt;div style=&quot;padding-left: 8px; font-size: 15px;&quot; align=&quot;left&quot;&gt;&lt;font style=&quot;font-size: 15px;&quot;&gt;Tiles&lt;br&gt;&lt;/font&gt;&lt;/div&gt;" style="rounded=0;whiteSpace=wrap;html=1;align=left;" parent="1-W61MvCv8Y89S9msYaM-85" vertex="1">
          <mxGeometry width="100" height="26" as="geometry" />
        </mxCell>
        <mxCell id="1-W61MvCv8Y89S9msYaM-82" value="" style="html=1;verticalLabelPosition=bottom;labelBackgroundColor=#ffffff;verticalAlign=top;shadow=0;dashed=0;strokeWidth=2;shape=mxgraph.ios7.misc.expand;fillColor=#000000;direction=west;" parent="1-W61MvCv8Y89S9msYaM-85" vertex="1">
          <mxGeometry x="70" y="6.066666666666666" width="20" height="13.866666666666667" as="geometry" />
        </mxCell>
        <mxCell id="1-W61MvCv8Y89S9msYaM-86" value="" style="group" parent="TJpbbNPDJ1j3fr_7OfPR-117" vertex="1" connectable="0">
          <mxGeometry x="450" y="44" width="100" height="26" as="geometry" />
        </mxCell>
        <mxCell id="1-W61MvCv8Y89S9msYaM-83" value="&lt;font style=&quot;font-size: 15px;&quot;&gt;Objects&lt;/font&gt;" style="rounded=0;whiteSpace=wrap;html=1;align=left;" parent="1-W61MvCv8Y89S9msYaM-86" vertex="1">
          <mxGeometry width="100" height="26" as="geometry" />
        </mxCell>
        <mxCell id="1-W61MvCv8Y89S9msYaM-84" value="" style="html=1;verticalLabelPosition=bottom;labelBackgroundColor=#ffffff;verticalAlign=top;shadow=0;dashed=0;strokeWidth=2;shape=mxgraph.ios7.misc.expand;fillColor=#000000;direction=west;" parent="1-W61MvCv8Y89S9msYaM-86" vertex="1">
          <mxGeometry x="70" y="6.066666666666666" width="20" height="13.866666666666667" as="geometry" />
        </mxCell>
        <mxCell id="7OBTo_eKb8ReW-Sw8Fou-3" value="" style="group" vertex="1" connectable="0" parent="TJpbbNPDJ1j3fr_7OfPR-117">
          <mxGeometry x="10" y="44" width="180" height="512" as="geometry" />
        </mxCell>
        <mxCell id="7OBTo_eKb8ReW-Sw8Fou-4" value="" style="rounded=0;whiteSpace=wrap;html=1;container=0;" vertex="1" parent="7OBTo_eKb8ReW-Sw8Fou-3">
          <mxGeometry width="180" height="512" as="geometry" />
        </mxCell>
        <mxCell id="7OBTo_eKb8ReW-Sw8Fou-5" value="4" style="rounded=0;whiteSpace=wrap;html=1;container=0;" vertex="1" parent="7OBTo_eKb8ReW-Sw8Fou-3">
          <mxGeometry x="13" y="100" width="64" height="64" as="geometry" />
        </mxCell>
        <mxCell id="7OBTo_eKb8ReW-Sw8Fou-6" value="3" style="rounded=0;whiteSpace=wrap;html=1;container=0;" vertex="1" parent="7OBTo_eKb8ReW-Sw8Fou-3">
          <mxGeometry x="103" y="100" width="64" height="64" as="geometry" />
        </mxCell>
        <mxCell id="7OBTo_eKb8ReW-Sw8Fou-7" value="6" style="rounded=0;whiteSpace=wrap;html=1;container=0;" vertex="1" parent="7OBTo_eKb8ReW-Sw8Fou-3">
          <mxGeometry x="13" y="180" width="64" height="64" as="geometry" />
        </mxCell>
        <mxCell id="7OBTo_eKb8ReW-Sw8Fou-8" value="" style="rounded=0;whiteSpace=wrap;html=1;container=0;" vertex="1" parent="7OBTo_eKb8ReW-Sw8Fou-3">
          <mxGeometry x="97.5" y="14.5" width="75" height="75" as="geometry" />
        </mxCell>
        <mxCell id="7OBTo_eKb8ReW-Sw8Fou-9" value="5" style="rounded=0;whiteSpace=wrap;html=1;container=0;" vertex="1" parent="7OBTo_eKb8ReW-Sw8Fou-3">
          <mxGeometry x="103" y="180" width="64" height="64" as="geometry" />
        </mxCell>
        <mxCell id="7OBTo_eKb8ReW-Sw8Fou-10" value="8" style="rounded=0;whiteSpace=wrap;html=1;container=0;" vertex="1" parent="7OBTo_eKb8ReW-Sw8Fou-3">
          <mxGeometry x="13" y="260" width="64" height="64" as="geometry" />
        </mxCell>
        <mxCell id="7OBTo_eKb8ReW-Sw8Fou-11" value="7" style="rounded=0;whiteSpace=wrap;html=1;container=0;" vertex="1" parent="7OBTo_eKb8ReW-Sw8Fou-3">
          <mxGeometry x="103" y="260" width="64" height="64" as="geometry" />
        </mxCell>
        <mxCell id="7OBTo_eKb8ReW-Sw8Fou-12" value="" style="line;strokeWidth=1;fillColor=none;align=left;verticalAlign=middle;spacingTop=-1;spacingLeft=3;spacingRight=3;rotatable=0;labelPosition=right;points=[];portConstraint=eastwest;strokeColor=default;container=0;" vertex="1" parent="7OBTo_eKb8ReW-Sw8Fou-3">
          <mxGeometry x="10" y="330" width="160" height="8" as="geometry" />
        </mxCell>
        <mxCell id="7OBTo_eKb8ReW-Sw8Fou-13" value="Item Description" style="rounded=0;whiteSpace=wrap;html=1;container=0;" vertex="1" parent="7OBTo_eKb8ReW-Sw8Fou-3">
          <mxGeometry x="9" y="350" width="162" height="151" as="geometry" />
        </mxCell>
        <mxCell id="7OBTo_eKb8ReW-Sw8Fou-14" value="Item1" style="rounded=0;whiteSpace=wrap;html=1;container=0;" vertex="1" parent="7OBTo_eKb8ReW-Sw8Fou-3">
          <mxGeometry x="13" y="20" width="64" height="64" as="geometry" />
        </mxCell>
        <mxCell id="7OBTo_eKb8ReW-Sw8Fou-15" value="Item2" style="rounded=0;whiteSpace=wrap;html=1;container=0;" vertex="1" parent="7OBTo_eKb8ReW-Sw8Fou-3">
          <mxGeometry x="13" y="20" width="64" height="64" as="geometry" />
        </mxCell>
        <mxCell id="7OBTo_eKb8ReW-Sw8Fou-16" value="Item1" style="rounded=0;whiteSpace=wrap;html=1;container=0;" vertex="1" parent="7OBTo_eKb8ReW-Sw8Fou-3">
          <mxGeometry x="103" y="20" width="64" height="64" as="geometry" />
        </mxCell>
        <mxCell id="7OBTo_eKb8ReW-Sw8Fou-63" value="" style="group" vertex="1" connectable="0" parent="TJpbbNPDJ1j3fr_7OfPR-117">
          <mxGeometry x="720" y="44" width="180" height="512" as="geometry" />
        </mxCell>
        <mxCell id="7OBTo_eKb8ReW-Sw8Fou-64" value="Level Settings" style="rounded=0;whiteSpace=wrap;html=1;" vertex="1" parent="7OBTo_eKb8ReW-Sw8Fou-63">
          <mxGeometry width="180" height="512" as="geometry" />
        </mxCell>
        <mxCell id="7OBTo_eKb8ReW-Sw8Fou-65" value="Exit" style="rounded=0;whiteSpace=wrap;html=1;" vertex="1" parent="7OBTo_eKb8ReW-Sw8Fou-63">
          <mxGeometry x="10" y="472" width="160" height="30" as="geometry" />
        </mxCell>
        <mxCell id="7OBTo_eKb8ReW-Sw8Fou-66" value="Save" style="rounded=0;whiteSpace=wrap;html=1;" vertex="1" parent="7OBTo_eKb8ReW-Sw8Fou-63">
          <mxGeometry x="10" y="432" width="74" height="30" as="geometry" />
        </mxCell>
        <mxCell id="7OBTo_eKb8ReW-Sw8Fou-67" value="Load" style="rounded=0;whiteSpace=wrap;html=1;" vertex="1" parent="7OBTo_eKb8ReW-Sw8Fou-63">
          <mxGeometry x="96" y="432" width="74" height="30" as="geometry" />
        </mxCell>
        <mxCell id="7OBTo_eKb8ReW-Sw8Fou-68" value="Test" style="rounded=0;whiteSpace=wrap;html=1;" vertex="1" parent="7OBTo_eKb8ReW-Sw8Fou-63">
          <mxGeometry x="10" y="392" width="160" height="30" as="geometry" />
        </mxCell>
        <mxCell id="7OBTo_eKb8ReW-Sw8Fou-69" value="&lt;div align=&quot;left&quot;&gt;Level Descripion&lt;/div&gt;" style="rounded=0;whiteSpace=wrap;html=1;align=left;verticalAlign=top;" vertex="1" parent="7OBTo_eKb8ReW-Sw8Fou-63">
          <mxGeometry x="10" y="232" width="160" height="130" as="geometry" />
        </mxCell>
        <mxCell id="7OBTo_eKb8ReW-Sw8Fou-70" value="" style="line;strokeWidth=1;fillColor=none;align=left;verticalAlign=middle;spacingTop=-1;spacingLeft=3;spacingRight=3;rotatable=0;labelPosition=right;points=[];portConstraint=eastwest;strokeColor=default;" vertex="1" parent="7OBTo_eKb8ReW-Sw8Fou-63">
          <mxGeometry x="10" y="372" width="160" height="8" as="geometry" />
        </mxCell>
        <mxCell id="7OBTo_eKb8ReW-Sw8Fou-71" value="&lt;div&gt;&lt;font style=&quot;font-size: 19px;&quot;&gt;Level Name&lt;/font&gt;&lt;/div&gt;" style="rounded=0;whiteSpace=wrap;html=1;align=center;" vertex="1" parent="7OBTo_eKb8ReW-Sw8Fou-63">
          <mxGeometry x="10" y="182" width="160" height="40" as="geometry" />
        </mxCell>
        <mxCell id="7OBTo_eKb8ReW-Sw8Fou-72" value="Run tests" style="rounded=0;whiteSpace=wrap;html=1;" vertex="1" parent="7OBTo_eKb8ReW-Sw8Fou-63">
          <mxGeometry x="10" y="132" width="160" height="24" as="geometry" />
        </mxCell>
        <mxCell id="7OBTo_eKb8ReW-Sw8Fou-73" value="" style="line;strokeWidth=1;fillColor=none;align=left;verticalAlign=middle;spacingTop=-1;spacingLeft=3;spacingRight=3;rotatable=0;labelPosition=right;points=[];portConstraint=eastwest;strokeColor=default;" vertex="1" parent="7OBTo_eKb8ReW-Sw8Fou-63">
          <mxGeometry x="10" y="164" width="160" height="8" as="geometry" />
        </mxCell>
        <mxCell id="7OBTo_eKb8ReW-Sw8Fou-74" value="" style="rounded=0;whiteSpace=wrap;html=1;" vertex="1" parent="7OBTo_eKb8ReW-Sw8Fou-63">
          <mxGeometry x="10" y="12" width="160" height="110" as="geometry" />
        </mxCell>
        <mxCell id="7OBTo_eKb8ReW-Sw8Fou-75" value="" style="line;strokeWidth=1;rotatable=0;dashed=0;labelPosition=right;align=left;verticalAlign=middle;spacingTop=0;spacingLeft=6;points=[];portConstraint=eastwest;" vertex="1" parent="7OBTo_eKb8ReW-Sw8Fou-63">
          <mxGeometry x="10" y="32" width="160" height="10" as="geometry" />
        </mxCell>
        <mxCell id="7OBTo_eKb8ReW-Sw8Fou-76" value="" style="line;strokeWidth=1;rotatable=0;dashed=0;labelPosition=right;align=left;verticalAlign=middle;spacingTop=0;spacingLeft=6;points=[];portConstraint=eastwest;" vertex="1" parent="7OBTo_eKb8ReW-Sw8Fou-63">
          <mxGeometry x="10" y="72" width="160" height="10" as="geometry" />
        </mxCell>
        <mxCell id="7OBTo_eKb8ReW-Sw8Fou-77" value="" style="line;strokeWidth=1;rotatable=0;dashed=0;labelPosition=right;align=left;verticalAlign=middle;spacingTop=0;spacingLeft=6;points=[];portConstraint=eastwest;" vertex="1" parent="7OBTo_eKb8ReW-Sw8Fou-63">
          <mxGeometry x="10" y="52" width="160" height="10" as="geometry" />
        </mxCell>
        <mxCell id="7OBTo_eKb8ReW-Sw8Fou-78" value="" style="line;strokeWidth=1;rotatable=0;dashed=0;labelPosition=right;align=left;verticalAlign=middle;spacingTop=0;spacingLeft=6;points=[];portConstraint=eastwest;" vertex="1" parent="7OBTo_eKb8ReW-Sw8Fou-63">
          <mxGeometry x="10" y="92" width="160" height="10" as="geometry" />
        </mxCell>
        <mxCell id="7OBTo_eKb8ReW-Sw8Fou-79" value="" style="line;strokeWidth=1;rotatable=0;dashed=0;labelPosition=right;align=left;verticalAlign=middle;spacingTop=0;spacingLeft=6;points=[];portConstraint=eastwest;direction=south;" vertex="1" parent="7OBTo_eKb8ReW-Sw8Fou-63">
          <mxGeometry x="86" y="12" width="10" height="110" as="geometry" />
        </mxCell>
        <mxCell id="7OBTo_eKb8ReW-Sw8Fou-80" value="Game Mode1" style="text;html=1;align=left;verticalAlign=middle;whiteSpace=wrap;rounded=0;" vertex="1" parent="7OBTo_eKb8ReW-Sw8Fou-63">
          <mxGeometry x="10" y="9" width="80" height="30" as="geometry" />
        </mxCell>
        <mxCell id="7OBTo_eKb8ReW-Sw8Fou-81" value="Game Mode1" style="text;html=1;align=left;verticalAlign=middle;whiteSpace=wrap;rounded=0;" vertex="1" parent="7OBTo_eKb8ReW-Sw8Fou-63">
          <mxGeometry x="10" y="32" width="80" height="30" as="geometry" />
        </mxCell>
        <mxCell id="7OBTo_eKb8ReW-Sw8Fou-82" value="Game Mode1" style="text;html=1;align=left;verticalAlign=middle;whiteSpace=wrap;rounded=0;" vertex="1" parent="7OBTo_eKb8ReW-Sw8Fou-63">
          <mxGeometry x="10" y="52" width="80" height="30" as="geometry" />
        </mxCell>
        <mxCell id="7OBTo_eKb8ReW-Sw8Fou-83" value="Game Mode1" style="text;html=1;align=left;verticalAlign=middle;whiteSpace=wrap;rounded=0;" vertex="1" parent="7OBTo_eKb8ReW-Sw8Fou-63">
          <mxGeometry x="10" y="72" width="80" height="30" as="geometry" />
        </mxCell>
        <mxCell id="7OBTo_eKb8ReW-Sw8Fou-84" value="Game Mode1" style="text;html=1;align=left;verticalAlign=middle;whiteSpace=wrap;rounded=0;" vertex="1" parent="7OBTo_eKb8ReW-Sw8Fou-63">
          <mxGeometry x="10" y="92" width="80" height="30" as="geometry" />
        </mxCell>
        <mxCell id="7OBTo_eKb8ReW-Sw8Fou-85" value="Valid" style="text;html=1;align=left;verticalAlign=middle;whiteSpace=wrap;rounded=0;" vertex="1" parent="7OBTo_eKb8ReW-Sw8Fou-63">
          <mxGeometry x="90" y="9" width="37" height="30" as="geometry" />
        </mxCell>
        <mxCell id="7OBTo_eKb8ReW-Sw8Fou-86" value="Valid" style="text;html=1;align=left;verticalAlign=middle;whiteSpace=wrap;rounded=0;" vertex="1" parent="7OBTo_eKb8ReW-Sw8Fou-63">
          <mxGeometry x="90" y="32" width="37" height="30" as="geometry" />
        </mxCell>
        <mxCell id="7OBTo_eKb8ReW-Sw8Fou-87" value="Valid" style="text;html=1;align=left;verticalAlign=middle;whiteSpace=wrap;rounded=0;" vertex="1" parent="7OBTo_eKb8ReW-Sw8Fou-63">
          <mxGeometry x="90" y="52" width="37" height="30" as="geometry" />
        </mxCell>
        <mxCell id="7OBTo_eKb8ReW-Sw8Fou-88" value="Valid" style="text;html=1;align=left;verticalAlign=middle;whiteSpace=wrap;rounded=0;" vertex="1" parent="7OBTo_eKb8ReW-Sw8Fou-63">
          <mxGeometry x="90" y="72" width="37" height="30" as="geometry" />
        </mxCell>
        <mxCell id="7OBTo_eKb8ReW-Sw8Fou-89" value="Valid" style="text;html=1;align=left;verticalAlign=middle;whiteSpace=wrap;rounded=0;" vertex="1" parent="7OBTo_eKb8ReW-Sw8Fou-63">
          <mxGeometry x="90" y="92" width="37" height="30" as="geometry" />
        </mxCell>
        <mxCell id="7OBTo_eKb8ReW-Sw8Fou-90" value="" style="dashed=0;labelPosition=right;align=left;shape=mxgraph.gmdl.checkbox;strokeColor=none;fillColor=#B0B0B0;strokeWidth=2;aspect=fixed;sketch=0;html=1;" vertex="1" parent="7OBTo_eKb8ReW-Sw8Fou-63">
          <mxGeometry x="150" y="16" width="16" height="16" as="geometry" />
        </mxCell>
        <mxCell id="7OBTo_eKb8ReW-Sw8Fou-91" value="" style="dashed=0;labelPosition=right;align=left;shape=mxgraph.gmdl.checkbox;strokeColor=none;fillColor=#B0B0B0;strokeWidth=2;aspect=fixed;sketch=0;html=1;" vertex="1" parent="7OBTo_eKb8ReW-Sw8Fou-63">
          <mxGeometry x="150" y="79" width="16" height="16" as="geometry" />
        </mxCell>
        <mxCell id="7OBTo_eKb8ReW-Sw8Fou-92" value="" style="dashed=0;labelPosition=right;align=left;shape=mxgraph.gmdl.checkbox;strokeColor=none;fillColor=#B0B0B0;strokeWidth=2;aspect=fixed;sketch=0;html=1;" vertex="1" parent="7OBTo_eKb8ReW-Sw8Fou-63">
          <mxGeometry x="150" y="39" width="16" height="16" as="geometry" />
        </mxCell>
        <mxCell id="7OBTo_eKb8ReW-Sw8Fou-93" value="" style="dashed=0;labelPosition=right;align=left;shape=mxgraph.gmdl.checkbox;strokeColor=none;fillColor=#B0B0B0;strokeWidth=2;aspect=fixed;sketch=0;html=1;" vertex="1" parent="7OBTo_eKb8ReW-Sw8Fou-63">
          <mxGeometry x="150" y="59" width="16" height="16" as="geometry" />
        </mxCell>
        <mxCell id="7OBTo_eKb8ReW-Sw8Fou-94" value="" style="dashed=0;labelPosition=right;align=left;shape=mxgraph.gmdl.checkbox;strokeColor=none;fillColor=#B0B0B0;strokeWidth=2;aspect=fixed;sketch=0;html=1;" vertex="1" parent="7OBTo_eKb8ReW-Sw8Fou-63">
          <mxGeometry x="150" y="99" width="16" height="16" as="geometry" />
        </mxCell>
        <mxCell id="1-W61MvCv8Y89S9msYaM-89" style="edgeStyle=orthogonalEdgeStyle;rounded=0;orthogonalLoop=1;jettySize=auto;html=1;" parent="7OBTo_eKb8ReW-Sw8Fou-95" source="1-W61MvCv8Y89S9msYaM-87" target="1-W61MvCv8Y89S9msYaM-80" edge="1">
          <mxGeometry relative="1" as="geometry" />
        </mxCell>
        <mxCell id="7OBTo_eKb8ReW-Sw8Fou-155" style="edgeStyle=orthogonalEdgeStyle;rounded=0;orthogonalLoop=1;jettySize=auto;html=1;" edge="1" parent="1" target="7OBTo_eKb8ReW-Sw8Fou-104">
          <mxGeometry relative="1" as="geometry" />
        </mxCell>
        <mxCell id="7OBTo_eKb8ReW-Sw8Fou-99" value="Window Title" style="strokeWidth=1;shadow=0;dashed=0;align=center;html=1;shape=mxgraph.mockup.containers.window;align=left;verticalAlign=top;spacingLeft=8;strokeColor2=#008cff;strokeColor3=#c4c4c4;fontColor=#666666;mainText=;fontSize=17;labelBackgroundColor=none;whiteSpace=wrap;" vertex="1" parent="1">
          <mxGeometry x="-1400" y="1740" width="910" height="570" as="geometry" />
        </mxCell>
        <mxCell id="7OBTo_eKb8ReW-Sw8Fou-100" value="&lt;div style=&quot;font-size: 13px;&quot;&gt;&lt;font size=&quot;1&quot;&gt;&lt;b style=&quot;font-size: 34px;&quot;&gt;Edited Level&lt;/b&gt;&lt;/font&gt;&lt;/div&gt;" style="rounded=0;whiteSpace=wrap;html=1;aspect=fixed;" vertex="1" parent="1">
          <mxGeometry x="-1201" y="1784" width="512" height="512" as="geometry" />
        </mxCell>
        <mxCell id="7OBTo_eKb8ReW-Sw8Fou-101" value="Level Settings" style="rounded=0;whiteSpace=wrap;html=1;" vertex="1" parent="1">
          <mxGeometry x="-680" y="1784" width="180" height="512" as="geometry" />
        </mxCell>
        <mxCell id="7OBTo_eKb8ReW-Sw8Fou-102" value="&lt;div style=&quot;font-size: 13px;&quot;&gt;&lt;font size=&quot;1&quot;&gt;&lt;b style=&quot;font-size: 34px;&quot;&gt;Edited Level&lt;/b&gt;&lt;/font&gt;&lt;/div&gt;" style="rounded=0;whiteSpace=wrap;html=1;aspect=fixed;" vertex="1" parent="1">
          <mxGeometry x="-1169" y="1816" width="448" height="448" as="geometry" />
        </mxCell>
        <mxCell id="7OBTo_eKb8ReW-Sw8Fou-103" value="" style="group" vertex="1" connectable="0" parent="1">
          <mxGeometry x="-1080" y="2080" width="100" height="26" as="geometry" />
        </mxCell>
        <mxCell id="7OBTo_eKb8ReW-Sw8Fou-104" value="&lt;div style=&quot;padding-left: 8px; font-size: 15px;&quot; align=&quot;left&quot;&gt;&lt;font style=&quot;font-size: 15px;&quot;&gt;Tiles&lt;br&gt;&lt;/font&gt;&lt;/div&gt;" style="rounded=0;whiteSpace=wrap;html=1;align=left;" vertex="1" parent="7OBTo_eKb8ReW-Sw8Fou-103">
          <mxGeometry width="100" height="26" as="geometry" />
        </mxCell>
        <mxCell id="7OBTo_eKb8ReW-Sw8Fou-105" value="" style="html=1;verticalLabelPosition=bottom;labelBackgroundColor=#ffffff;verticalAlign=top;shadow=0;dashed=0;strokeWidth=2;shape=mxgraph.ios7.misc.expand;fillColor=#000000;direction=east;" vertex="1" parent="7OBTo_eKb8ReW-Sw8Fou-103">
          <mxGeometry x="70" y="6.066666666666666" width="20" height="13.866666666666667" as="geometry" />
        </mxCell>
        <mxCell id="7OBTo_eKb8ReW-Sw8Fou-109" value="" style="group" vertex="1" connectable="0" parent="1">
          <mxGeometry x="-1390" y="1784" width="180" height="512" as="geometry" />
        </mxCell>
        <mxCell id="7OBTo_eKb8ReW-Sw8Fou-110" value="" style="rounded=0;whiteSpace=wrap;html=1;container=0;" vertex="1" parent="7OBTo_eKb8ReW-Sw8Fou-109">
          <mxGeometry width="180" height="512" as="geometry" />
        </mxCell>
        <mxCell id="7OBTo_eKb8ReW-Sw8Fou-111" value="4" style="rounded=0;whiteSpace=wrap;html=1;container=0;" vertex="1" parent="7OBTo_eKb8ReW-Sw8Fou-109">
          <mxGeometry x="13" y="100" width="64" height="64" as="geometry" />
        </mxCell>
        <mxCell id="7OBTo_eKb8ReW-Sw8Fou-112" value="3" style="rounded=0;whiteSpace=wrap;html=1;container=0;" vertex="1" parent="7OBTo_eKb8ReW-Sw8Fou-109">
          <mxGeometry x="103" y="100" width="64" height="64" as="geometry" />
        </mxCell>
        <mxCell id="7OBTo_eKb8ReW-Sw8Fou-113" value="6" style="rounded=0;whiteSpace=wrap;html=1;container=0;" vertex="1" parent="7OBTo_eKb8ReW-Sw8Fou-109">
          <mxGeometry x="13" y="180" width="64" height="64" as="geometry" />
        </mxCell>
        <mxCell id="7OBTo_eKb8ReW-Sw8Fou-114" value="" style="rounded=0;whiteSpace=wrap;html=1;container=0;" vertex="1" parent="7OBTo_eKb8ReW-Sw8Fou-109">
          <mxGeometry x="97.5" y="14.5" width="75" height="75" as="geometry" />
        </mxCell>
        <mxCell id="7OBTo_eKb8ReW-Sw8Fou-115" value="5" style="rounded=0;whiteSpace=wrap;html=1;container=0;" vertex="1" parent="7OBTo_eKb8ReW-Sw8Fou-109">
          <mxGeometry x="103" y="180" width="64" height="64" as="geometry" />
        </mxCell>
        <mxCell id="7OBTo_eKb8ReW-Sw8Fou-116" value="8" style="rounded=0;whiteSpace=wrap;html=1;container=0;" vertex="1" parent="7OBTo_eKb8ReW-Sw8Fou-109">
          <mxGeometry x="13" y="260" width="64" height="64" as="geometry" />
        </mxCell>
        <mxCell id="7OBTo_eKb8ReW-Sw8Fou-117" value="7" style="rounded=0;whiteSpace=wrap;html=1;container=0;" vertex="1" parent="7OBTo_eKb8ReW-Sw8Fou-109">
          <mxGeometry x="103" y="260" width="64" height="64" as="geometry" />
        </mxCell>
        <mxCell id="7OBTo_eKb8ReW-Sw8Fou-118" value="" style="line;strokeWidth=1;fillColor=none;align=left;verticalAlign=middle;spacingTop=-1;spacingLeft=3;spacingRight=3;rotatable=0;labelPosition=right;points=[];portConstraint=eastwest;strokeColor=default;container=0;" vertex="1" parent="7OBTo_eKb8ReW-Sw8Fou-109">
          <mxGeometry x="10" y="330" width="160" height="8" as="geometry" />
        </mxCell>
        <mxCell id="7OBTo_eKb8ReW-Sw8Fou-119" value="Item Description" style="rounded=0;whiteSpace=wrap;html=1;container=0;" vertex="1" parent="7OBTo_eKb8ReW-Sw8Fou-109">
          <mxGeometry x="9" y="350" width="162" height="151" as="geometry" />
        </mxCell>
        <mxCell id="7OBTo_eKb8ReW-Sw8Fou-120" value="Item1" style="rounded=0;whiteSpace=wrap;html=1;container=0;" vertex="1" parent="7OBTo_eKb8ReW-Sw8Fou-109">
          <mxGeometry x="13" y="20" width="64" height="64" as="geometry" />
        </mxCell>
        <mxCell id="7OBTo_eKb8ReW-Sw8Fou-121" value="Item2" style="rounded=0;whiteSpace=wrap;html=1;container=0;" vertex="1" parent="7OBTo_eKb8ReW-Sw8Fou-109">
          <mxGeometry x="13" y="20" width="64" height="64" as="geometry" />
        </mxCell>
        <mxCell id="7OBTo_eKb8ReW-Sw8Fou-122" value="Item1" style="rounded=0;whiteSpace=wrap;html=1;container=0;" vertex="1" parent="7OBTo_eKb8ReW-Sw8Fou-109">
          <mxGeometry x="103" y="20" width="64" height="64" as="geometry" />
        </mxCell>
        <mxCell id="7OBTo_eKb8ReW-Sw8Fou-123" value="" style="group" vertex="1" connectable="0" parent="1">
          <mxGeometry x="-680" y="1784" width="180" height="512" as="geometry" />
        </mxCell>
        <mxCell id="7OBTo_eKb8ReW-Sw8Fou-124" value="Level Settings" style="rounded=0;whiteSpace=wrap;html=1;" vertex="1" parent="7OBTo_eKb8ReW-Sw8Fou-123">
          <mxGeometry width="180" height="512" as="geometry" />
        </mxCell>
        <mxCell id="7OBTo_eKb8ReW-Sw8Fou-125" value="Exit" style="rounded=0;whiteSpace=wrap;html=1;" vertex="1" parent="7OBTo_eKb8ReW-Sw8Fou-123">
          <mxGeometry x="10" y="472" width="160" height="30" as="geometry" />
        </mxCell>
        <mxCell id="7OBTo_eKb8ReW-Sw8Fou-126" value="Save" style="rounded=0;whiteSpace=wrap;html=1;" vertex="1" parent="7OBTo_eKb8ReW-Sw8Fou-123">
          <mxGeometry x="10" y="432" width="74" height="30" as="geometry" />
        </mxCell>
        <mxCell id="7OBTo_eKb8ReW-Sw8Fou-127" value="Load" style="rounded=0;whiteSpace=wrap;html=1;" vertex="1" parent="7OBTo_eKb8ReW-Sw8Fou-123">
          <mxGeometry x="96" y="432" width="74" height="30" as="geometry" />
        </mxCell>
        <mxCell id="7OBTo_eKb8ReW-Sw8Fou-128" value="Test" style="rounded=0;whiteSpace=wrap;html=1;" vertex="1" parent="7OBTo_eKb8ReW-Sw8Fou-123">
          <mxGeometry x="10" y="392" width="160" height="30" as="geometry" />
        </mxCell>
        <mxCell id="7OBTo_eKb8ReW-Sw8Fou-129" value="&lt;div align=&quot;left&quot;&gt;Level Descripion&lt;/div&gt;" style="rounded=0;whiteSpace=wrap;html=1;align=left;verticalAlign=top;" vertex="1" parent="7OBTo_eKb8ReW-Sw8Fou-123">
          <mxGeometry x="10" y="232" width="160" height="130" as="geometry" />
        </mxCell>
        <mxCell id="7OBTo_eKb8ReW-Sw8Fou-130" value="" style="line;strokeWidth=1;fillColor=none;align=left;verticalAlign=middle;spacingTop=-1;spacingLeft=3;spacingRight=3;rotatable=0;labelPosition=right;points=[];portConstraint=eastwest;strokeColor=default;" vertex="1" parent="7OBTo_eKb8ReW-Sw8Fou-123">
          <mxGeometry x="10" y="372" width="160" height="8" as="geometry" />
        </mxCell>
        <mxCell id="7OBTo_eKb8ReW-Sw8Fou-131" value="&lt;div&gt;&lt;font style=&quot;font-size: 19px;&quot;&gt;Level Name&lt;/font&gt;&lt;/div&gt;" style="rounded=0;whiteSpace=wrap;html=1;align=center;" vertex="1" parent="7OBTo_eKb8ReW-Sw8Fou-123">
          <mxGeometry x="10" y="182" width="160" height="40" as="geometry" />
        </mxCell>
        <mxCell id="7OBTo_eKb8ReW-Sw8Fou-132" value="Run tests" style="rounded=0;whiteSpace=wrap;html=1;" vertex="1" parent="7OBTo_eKb8ReW-Sw8Fou-123">
          <mxGeometry x="10" y="132" width="160" height="24" as="geometry" />
        </mxCell>
        <mxCell id="7OBTo_eKb8ReW-Sw8Fou-133" value="" style="line;strokeWidth=1;fillColor=none;align=left;verticalAlign=middle;spacingTop=-1;spacingLeft=3;spacingRight=3;rotatable=0;labelPosition=right;points=[];portConstraint=eastwest;strokeColor=default;" vertex="1" parent="7OBTo_eKb8ReW-Sw8Fou-123">
          <mxGeometry x="10" y="164" width="160" height="8" as="geometry" />
        </mxCell>
        <mxCell id="7OBTo_eKb8ReW-Sw8Fou-134" value="" style="rounded=0;whiteSpace=wrap;html=1;" vertex="1" parent="7OBTo_eKb8ReW-Sw8Fou-123">
          <mxGeometry x="10" y="12" width="160" height="110" as="geometry" />
        </mxCell>
        <mxCell id="7OBTo_eKb8ReW-Sw8Fou-135" value="" style="line;strokeWidth=1;rotatable=0;dashed=0;labelPosition=right;align=left;verticalAlign=middle;spacingTop=0;spacingLeft=6;points=[];portConstraint=eastwest;" vertex="1" parent="7OBTo_eKb8ReW-Sw8Fou-123">
          <mxGeometry x="10" y="32" width="160" height="10" as="geometry" />
        </mxCell>
        <mxCell id="7OBTo_eKb8ReW-Sw8Fou-136" value="" style="line;strokeWidth=1;rotatable=0;dashed=0;labelPosition=right;align=left;verticalAlign=middle;spacingTop=0;spacingLeft=6;points=[];portConstraint=eastwest;" vertex="1" parent="7OBTo_eKb8ReW-Sw8Fou-123">
          <mxGeometry x="10" y="72" width="160" height="10" as="geometry" />
        </mxCell>
        <mxCell id="7OBTo_eKb8ReW-Sw8Fou-137" value="" style="line;strokeWidth=1;rotatable=0;dashed=0;labelPosition=right;align=left;verticalAlign=middle;spacingTop=0;spacingLeft=6;points=[];portConstraint=eastwest;" vertex="1" parent="7OBTo_eKb8ReW-Sw8Fou-123">
          <mxGeometry x="10" y="52" width="160" height="10" as="geometry" />
        </mxCell>
        <mxCell id="7OBTo_eKb8ReW-Sw8Fou-138" value="" style="line;strokeWidth=1;rotatable=0;dashed=0;labelPosition=right;align=left;verticalAlign=middle;spacingTop=0;spacingLeft=6;points=[];portConstraint=eastwest;" vertex="1" parent="7OBTo_eKb8ReW-Sw8Fou-123">
          <mxGeometry x="10" y="92" width="160" height="10" as="geometry" />
        </mxCell>
        <mxCell id="7OBTo_eKb8ReW-Sw8Fou-139" value="" style="line;strokeWidth=1;rotatable=0;dashed=0;labelPosition=right;align=left;verticalAlign=middle;spacingTop=0;spacingLeft=6;points=[];portConstraint=eastwest;direction=south;" vertex="1" parent="7OBTo_eKb8ReW-Sw8Fou-123">
          <mxGeometry x="86" y="12" width="10" height="110" as="geometry" />
        </mxCell>
        <mxCell id="7OBTo_eKb8ReW-Sw8Fou-140" value="Game Mode1" style="text;html=1;align=left;verticalAlign=middle;whiteSpace=wrap;rounded=0;" vertex="1" parent="7OBTo_eKb8ReW-Sw8Fou-123">
          <mxGeometry x="10" y="9" width="80" height="30" as="geometry" />
        </mxCell>
        <mxCell id="7OBTo_eKb8ReW-Sw8Fou-141" value="Game Mode1" style="text;html=1;align=left;verticalAlign=middle;whiteSpace=wrap;rounded=0;" vertex="1" parent="7OBTo_eKb8ReW-Sw8Fou-123">
          <mxGeometry x="10" y="32" width="80" height="30" as="geometry" />
        </mxCell>
        <mxCell id="7OBTo_eKb8ReW-Sw8Fou-142" value="Game Mode1" style="text;html=1;align=left;verticalAlign=middle;whiteSpace=wrap;rounded=0;" vertex="1" parent="7OBTo_eKb8ReW-Sw8Fou-123">
          <mxGeometry x="10" y="52" width="80" height="30" as="geometry" />
        </mxCell>
        <mxCell id="7OBTo_eKb8ReW-Sw8Fou-143" value="Game Mode1" style="text;html=1;align=left;verticalAlign=middle;whiteSpace=wrap;rounded=0;" vertex="1" parent="7OBTo_eKb8ReW-Sw8Fou-123">
          <mxGeometry x="10" y="72" width="80" height="30" as="geometry" />
        </mxCell>
        <mxCell id="7OBTo_eKb8ReW-Sw8Fou-144" value="Game Mode1" style="text;html=1;align=left;verticalAlign=middle;whiteSpace=wrap;rounded=0;" vertex="1" parent="7OBTo_eKb8ReW-Sw8Fou-123">
          <mxGeometry x="10" y="92" width="80" height="30" as="geometry" />
        </mxCell>
        <mxCell id="7OBTo_eKb8ReW-Sw8Fou-145" value="Valid" style="text;html=1;align=left;verticalAlign=middle;whiteSpace=wrap;rounded=0;" vertex="1" parent="7OBTo_eKb8ReW-Sw8Fou-123">
          <mxGeometry x="90" y="9" width="37" height="30" as="geometry" />
        </mxCell>
        <mxCell id="7OBTo_eKb8ReW-Sw8Fou-146" value="Valid" style="text;html=1;align=left;verticalAlign=middle;whiteSpace=wrap;rounded=0;" vertex="1" parent="7OBTo_eKb8ReW-Sw8Fou-123">
          <mxGeometry x="90" y="32" width="37" height="30" as="geometry" />
        </mxCell>
        <mxCell id="7OBTo_eKb8ReW-Sw8Fou-147" value="Valid" style="text;html=1;align=left;verticalAlign=middle;whiteSpace=wrap;rounded=0;" vertex="1" parent="7OBTo_eKb8ReW-Sw8Fou-123">
          <mxGeometry x="90" y="52" width="37" height="30" as="geometry" />
        </mxCell>
        <mxCell id="7OBTo_eKb8ReW-Sw8Fou-148" value="Valid" style="text;html=1;align=left;verticalAlign=middle;whiteSpace=wrap;rounded=0;" vertex="1" parent="7OBTo_eKb8ReW-Sw8Fou-123">
          <mxGeometry x="90" y="72" width="37" height="30" as="geometry" />
        </mxCell>
        <mxCell id="7OBTo_eKb8ReW-Sw8Fou-149" value="Valid" style="text;html=1;align=left;verticalAlign=middle;whiteSpace=wrap;rounded=0;" vertex="1" parent="7OBTo_eKb8ReW-Sw8Fou-123">
          <mxGeometry x="90" y="92" width="37" height="30" as="geometry" />
        </mxCell>
        <mxCell id="7OBTo_eKb8ReW-Sw8Fou-150" value="" style="dashed=0;labelPosition=right;align=left;shape=mxgraph.gmdl.checkbox;strokeColor=none;fillColor=#B0B0B0;strokeWidth=2;aspect=fixed;sketch=0;html=1;" vertex="1" parent="7OBTo_eKb8ReW-Sw8Fou-123">
          <mxGeometry x="150" y="16" width="16" height="16" as="geometry" />
        </mxCell>
        <mxCell id="7OBTo_eKb8ReW-Sw8Fou-151" value="" style="dashed=0;labelPosition=right;align=left;shape=mxgraph.gmdl.checkbox;strokeColor=none;fillColor=#B0B0B0;strokeWidth=2;aspect=fixed;sketch=0;html=1;" vertex="1" parent="7OBTo_eKb8ReW-Sw8Fou-123">
          <mxGeometry x="150" y="79" width="16" height="16" as="geometry" />
        </mxCell>
        <mxCell id="7OBTo_eKb8ReW-Sw8Fou-152" value="" style="dashed=0;labelPosition=right;align=left;shape=mxgraph.gmdl.checkbox;strokeColor=none;fillColor=#B0B0B0;strokeWidth=2;aspect=fixed;sketch=0;html=1;" vertex="1" parent="7OBTo_eKb8ReW-Sw8Fou-123">
          <mxGeometry x="150" y="39" width="16" height="16" as="geometry" />
        </mxCell>
        <mxCell id="7OBTo_eKb8ReW-Sw8Fou-153" value="" style="dashed=0;labelPosition=right;align=left;shape=mxgraph.gmdl.checkbox;strokeColor=none;fillColor=#B0B0B0;strokeWidth=2;aspect=fixed;sketch=0;html=1;" vertex="1" parent="7OBTo_eKb8ReW-Sw8Fou-123">
          <mxGeometry x="150" y="59" width="16" height="16" as="geometry" />
        </mxCell>
        <mxCell id="7OBTo_eKb8ReW-Sw8Fou-154" value="" style="dashed=0;labelPosition=right;align=left;shape=mxgraph.gmdl.checkbox;strokeColor=none;fillColor=#B0B0B0;strokeWidth=2;aspect=fixed;sketch=0;html=1;" vertex="1" parent="7OBTo_eKb8ReW-Sw8Fou-123">
          <mxGeometry x="150" y="99" width="16" height="16" as="geometry" />
        </mxCell>
        <mxCell id="7OBTo_eKb8ReW-Sw8Fou-156" value="" style="rounded=0;whiteSpace=wrap;html=1;" vertex="1" parent="1">
          <mxGeometry x="-1180" y="1784" width="470" height="296" as="geometry" />
        </mxCell>
        <mxCell id="7OBTo_eKb8ReW-Sw8Fou-157" value="3" style="rounded=0;whiteSpace=wrap;html=1;container=0;" vertex="1" parent="1">
          <mxGeometry x="-1160" y="1804" width="64" height="64" as="geometry" />
        </mxCell>
        <mxCell id="7OBTo_eKb8ReW-Sw8Fou-158" value="3" style="rounded=0;whiteSpace=wrap;html=1;container=0;" vertex="1" parent="1">
          <mxGeometry x="-1080" y="1802" width="64" height="64" as="geometry" />
        </mxCell>
        <mxCell id="7OBTo_eKb8ReW-Sw8Fou-168" value="&lt;div&gt;Item category&lt;/div&gt;&lt;div&gt;(wall, crate,, enemy, etc.)&lt;br&gt;&lt;/div&gt;" style="rounded=0;whiteSpace=wrap;html=1;" vertex="1" parent="1">
          <mxGeometry x="-660" y="2440" width="120" height="60" as="geometry" />
        </mxCell>
        <mxCell id="7OBTo_eKb8ReW-Sw8Fou-169" value="" style="group" vertex="1" connectable="0" parent="1">
          <mxGeometry x="-1191" y="2450" width="470" height="322" as="geometry" />
        </mxCell>
        <mxCell id="7OBTo_eKb8ReW-Sw8Fou-159" value="" style="rounded=0;whiteSpace=wrap;html=1;" vertex="1" parent="7OBTo_eKb8ReW-Sw8Fou-169">
          <mxGeometry width="470" height="296" as="geometry" />
        </mxCell>
        <mxCell id="7OBTo_eKb8ReW-Sw8Fou-160" value="3" style="rounded=0;whiteSpace=wrap;html=1;container=0;" vertex="1" parent="7OBTo_eKb8ReW-Sw8Fou-169">
          <mxGeometry x="21" y="20" width="64" height="64" as="geometry" />
        </mxCell>
        <mxCell id="7OBTo_eKb8ReW-Sw8Fou-162" value="" style="group" vertex="1" connectable="0" parent="7OBTo_eKb8ReW-Sw8Fou-169">
          <mxGeometry x="42" y="296" width="100" height="26" as="geometry" />
        </mxCell>
        <mxCell id="7OBTo_eKb8ReW-Sw8Fou-163" value="&lt;div style=&quot;padding-left: 8px; font-size: 15px;&quot; align=&quot;left&quot;&gt;&lt;font style=&quot;font-size: 15px;&quot;&gt;Tiles&lt;br&gt;&lt;/font&gt;&lt;/div&gt;" style="rounded=0;whiteSpace=wrap;html=1;align=left;" vertex="1" parent="7OBTo_eKb8ReW-Sw8Fou-162">
          <mxGeometry width="100" height="26" as="geometry" />
        </mxCell>
        <mxCell id="7OBTo_eKb8ReW-Sw8Fou-164" value="" style="html=1;verticalLabelPosition=bottom;labelBackgroundColor=#ffffff;verticalAlign=top;shadow=0;dashed=0;strokeWidth=2;shape=mxgraph.ios7.misc.expand;fillColor=#000000;direction=east;" vertex="1" parent="7OBTo_eKb8ReW-Sw8Fou-162">
          <mxGeometry x="70" y="6.066666666666666" width="20" height="13.866666666666667" as="geometry" />
        </mxCell>
      </root>
    </mxGraphModel>
  </diagram>
</mxfile>
